<?xml version="1.0" encoding="UTF-8" standalone="no"?><!DOCTYPE svg PUBLIC "-//W3C//DTD SVG 1.1//EN" "http://www.w3.org/Graphics/SVG/1.1/DTD/svg11.dtd"><svg width="100%" height="100%" viewBox="0 0 128 128" version="1.1" xmlns="http://www.w3.org/2000/svg" xmlns:xlink="http://www.w3.org/1999/xlink" xml:space="preserve" xmlns:serif="http://www.serif.com/" style="fill-rule:evenodd;clip-rule:evenodd;stroke-linejoin:round;stroke-miterlimit:2;"><path d="M128,32l0,64c0,17.661 -14.339,32 -32,32l-64,0c-17.661,0 -32,-14.339 -32,-32l0,-64c0,-17.661 14.339,-32 32,-32l64,0c17.661,0 32,14.339 32,32Z"/><path d="M18.76,18.404l0,2.416l7.552,0l-0,84.752l-7.552,0l0,2.416l39.925,0l-0,-2.416l-7.429,0l0,-41.744l25.488,0l0,41.744l-7.557,0l0,2.416l40.053,0l0,-2.416l-7.552,0l-0,-84.752l7.552,0l0,-2.416l-40.053,0l0,2.416l7.557,0l-0,39.696l-25.488,0l-0,-39.696l7.429,0l-0,-2.416l-39.925,0Z" style="fill:#fff;fill-rule:nonzero;"/></svg>