# MagicaVoxel @ Ephtracy

# group
o 

# material
mtllib arrow.mtl
usemtl palette

# normals
vn -1 0 0
vn 1 0 0
vn 0 0 1
vn 0 0 -1
vn 0 -1 0
vn 0 1 0

# texcoords
vt 0.958984 0.5

# verts
v 0 0 -1.1
v 0 0 -2
v 0 0.4 -0.3
v 0 0.4 -1.1
v 0 0.9 0.8
v 0 0.9 -0.3
v 0 1.5 1.5
v 0 1.5 0.8
v 0 1.9 1.9
v 0 1.9 1.5
v 0 2.4 1.9
v 0 2.4 1.5
v 0 2.7 1.5
v 0 2.7 0.8
v 0 3.3 0.8
v 0 3.3 -0.3
v 0 3.7 -0.3
v 0 3.7 -1.1
v 0 4 -1.1
v 0 4 -2
v 0.1 0 -1.1
v 0.1 0 -2
v 0.1 0.4 -0.3
v 0.1 0.4 -1.1
v 0.1 0.9 0.8
v 0.1 0.9 -0.3
v 0.1 1.5 1.5
v 0.1 1.5 0.8
v 0.1 1.9 1.9
v 0.1 1.9 1.5
v 0.1 2.4 1.9
v 0.1 2.4 1.5
v 0.1 2.7 1.5
v 0.1 2.7 0.8
v 0.1 3.3 0.8
v 0.1 3.3 -0.3
v 0.1 3.7 -0.3
v 0.1 3.7 -1.1
v 0.1 4 -1.1
v 0.1 4 -2
v 0 1.9 1.9
v 0 2.4 1.9
v 0.1 1.9 1.9
v 0.1 2.4 1.9
v 0 1.5 1.5
v 0 1.9 1.5
v 0 2.4 1.5
v 0 2.7 1.5
v 0.1 1.5 1.5
v 0.1 1.9 1.5
v 0.1 2.4 1.5
v 0.1 2.7 1.5
v 0 0.9 0.8
v 0 1.5 0.8
v 0 2.7 0.8
v 0 3.3 0.8
v 0.1 0.9 0.8
v 0.1 1.5 0.8
v 0.1 2.7 0.8
v 0.1 3.3 0.8
v 0 0.4 -0.3
v 0 0.9 -0.3
v 0 3.3 -0.3
v 0 3.7 -0.3
v 0.1 0.4 -0.3
v 0.1 0.9 -0.3
v 0.1 3.3 -0.3
v 0.1 3.7 -0.3
v 0 0 -1.1
v 0 0.4 -1.1
v 0 3.7 -1.1
v 0 4 -1.1
v 0.1 0 -1.1
v 0.1 0.4 -1.1
v 0.1 3.7 -1.1
v 0.1 4 -1.1
v 0 0 -2
v 0 4 -2
v 0.1 0 -2
v 0.1 4 -2
v 0 0 -1.1
v 0.1 0 -1.1
v 0 0 -2
v 0.1 0 -2
v 0 0.4 -0.3
v 0.1 0.4 -0.3
v 0 0.4 -1.1
v 0.1 0.4 -1.1
v 0 0.9 0.8
v 0.1 0.9 0.8
v 0 0.9 -0.3
v 0.1 0.9 -0.3
v 0 1.5 1.5
v 0.1 1.5 1.5
v 0 1.5 0.8
v 0.1 1.5 0.8
v 0 1.9 1.9
v 0.1 1.9 1.9
v 0 1.9 1.5
v 0.1 1.9 1.5
v 0 2.4 1.9
v 0.1 2.4 1.9
v 0 2.4 1.5
v 0.1 2.4 1.5
v 0 2.7 1.5
v 0.1 2.7 1.5
v 0 2.7 0.8
v 0.1 2.7 0.8
v 0 3.3 0.8
v 0.1 3.3 0.8
v 0 3.3 -0.3
v 0.1 3.3 -0.3
v 0 3.7 -0.3
v 0.1 3.7 -0.3
v 0 3.7 -1.1
v 0.1 3.7 -1.1
v 0 4 -1.1
v 0.1 4 -1.1
v 0 4 -2
v 0.1 4 -2

# faces
f 4/1/1 2/1/1 1/1/1
f 6/1/1 4/1/1 3/1/1
f 8/1/1 6/1/1 5/1/1
f 10/1/1 8/1/1 7/1/1
f 11/1/1 10/1/1 9/1/1
f 12/1/1 8/1/1 10/1/1
f 12/1/1 10/1/1 11/1/1
f 13/1/1 8/1/1 12/1/1
f 14/1/1 6/1/1 8/1/1
f 14/1/1 8/1/1 13/1/1
f 15/1/1 6/1/1 14/1/1
f 16/1/1 4/1/1 6/1/1
f 16/1/1 6/1/1 15/1/1
f 17/1/1 4/1/1 16/1/1
f 18/1/1 2/1/1 4/1/1
f 18/1/1 4/1/1 17/1/1
f 19/1/1 2/1/1 18/1/1
f 20/1/1 2/1/1 19/1/1
f 21/1/2 22/1/2 24/1/2
f 23/1/2 24/1/2 26/1/2
f 25/1/2 26/1/2 28/1/2
f 27/1/2 28/1/2 30/1/2
f 29/1/2 30/1/2 31/1/2
f 30/1/2 28/1/2 32/1/2
f 31/1/2 30/1/2 32/1/2
f 32/1/2 28/1/2 33/1/2
f 28/1/2 26/1/2 34/1/2
f 33/1/2 28/1/2 34/1/2
f 34/1/2 26/1/2 35/1/2
f 26/1/2 24/1/2 36/1/2
f 35/1/2 26/1/2 36/1/2
f 36/1/2 24/1/2 37/1/2
f 24/1/2 22/1/2 38/1/2
f 37/1/2 24/1/2 38/1/2
f 38/1/2 22/1/2 39/1/2
f 39/1/2 22/1/2 40/1/2
f 43/1/3 42/1/3 41/1/3
f 44/1/3 42/1/3 43/1/3
f 49/1/3 46/1/3 45/1/3
f 50/1/3 46/1/3 49/1/3
f 51/1/3 48/1/3 47/1/3
f 52/1/3 48/1/3 51/1/3
f 57/1/3 54/1/3 53/1/3
f 58/1/3 54/1/3 57/1/3
f 59/1/3 56/1/3 55/1/3
f 60/1/3 56/1/3 59/1/3
f 65/1/3 62/1/3 61/1/3
f 66/1/3 62/1/3 65/1/3
f 67/1/3 64/1/3 63/1/3
f 68/1/3 64/1/3 67/1/3
f 73/1/3 70/1/3 69/1/3
f 74/1/3 70/1/3 73/1/3
f 75/1/3 72/1/3 71/1/3
f 76/1/3 72/1/3 75/1/3
f 77/1/4 78/1/4 79/1/4
f 79/1/4 78/1/4 80/1/4
f 83/1/5 82/1/5 81/1/5
f 84/1/5 82/1/5 83/1/5
f 87/1/5 86/1/5 85/1/5
f 88/1/5 86/1/5 87/1/5
f 91/1/5 90/1/5 89/1/5
f 92/1/5 90/1/5 91/1/5
f 95/1/5 94/1/5 93/1/5
f 96/1/5 94/1/5 95/1/5
f 99/1/5 98/1/5 97/1/5
f 100/1/5 98/1/5 99/1/5
f 101/1/6 102/1/6 103/1/6
f 103/1/6 102/1/6 104/1/6
f 105/1/6 106/1/6 107/1/6
f 107/1/6 106/1/6 108/1/6
f 109/1/6 110/1/6 111/1/6
f 111/1/6 110/1/6 112/1/6
f 113/1/6 114/1/6 115/1/6
f 115/1/6 114/1/6 116/1/6
f 117/1/6 118/1/6 119/1/6
f 119/1/6 118/1/6 120/1/6
